<mxfile host="app.diagrams.net" agent="Mozilla/5.0 (Windows NT 10.0; Win64; x64) AppleWebKit/537.36 (KHTML, like Gecko) Chrome/131.0.0.0 Safari/537.36 Edg/131.0.0.0" version="25.0.3">
  <diagram name="Pagina-1" id="9rVK_morirR8z8rQCJL5">
    <mxGraphModel dx="3679" dy="2683" grid="1" gridSize="10" guides="1" tooltips="1" connect="1" arrows="1" fold="1" page="1" pageScale="1" pageWidth="827" pageHeight="1169" math="0" shadow="0">
      <root>
        <mxCell id="0" />
        <mxCell id="1" parent="0" />
        <mxCell id="iIkBl-cms1_YrR2odn27-116" value="" style="rounded=0;whiteSpace=wrap;html=1;fillColor=#e51400;strokeWidth=3;strokeColor=#B20000;opacity=10;fontColor=#ffffff;" parent="1" vertex="1">
          <mxGeometry x="-530" y="620" width="390" height="420" as="geometry" />
        </mxCell>
        <mxCell id="iIkBl-cms1_YrR2odn27-12" value="" style="rounded=0;whiteSpace=wrap;html=1;fillColor=#D1E6FC;strokeWidth=3;strokeColor=#004E9C;opacity=30;" parent="1" vertex="1">
          <mxGeometry x="-130" y="-50" width="560" height="520" as="geometry" />
        </mxCell>
        <mxCell id="iIkBl-cms1_YrR2odn27-26" style="edgeStyle=orthogonalEdgeStyle;rounded=0;orthogonalLoop=1;jettySize=auto;html=1;strokeWidth=3;endSize=1;strokeColor=#004e9c;" parent="1" source="iIkBl-cms1_YrR2odn27-1" edge="1">
          <mxGeometry relative="1" as="geometry">
            <mxPoint x="230" y="270" as="targetPoint" />
          </mxGeometry>
        </mxCell>
        <mxCell id="iIkBl-cms1_YrR2odn27-1" value="&lt;font face=&quot;Tahoma&quot; style=&quot;font-size: 20px;&quot;&gt;XIIa&lt;/font&gt;" style="rounded=1;whiteSpace=wrap;html=1;fillColor=#0066CC;strokeColor=#004E9C;fontColor=#ffffff;shadow=0;fillStyle=solid;" parent="1" vertex="1">
          <mxGeometry x="200" y="160" width="60" height="40" as="geometry" />
        </mxCell>
        <mxCell id="iIkBl-cms1_YrR2odn27-3" value="" style="edgeStyle=orthogonalEdgeStyle;rounded=0;orthogonalLoop=1;jettySize=auto;html=1;strokeWidth=3;strokeColor=#004E9C;flowAnimation=0;shadow=0;endSize=1;startSize=1;jumpSize=6;" parent="1" source="iIkBl-cms1_YrR2odn27-2" target="iIkBl-cms1_YrR2odn27-1" edge="1">
          <mxGeometry relative="1" as="geometry" />
        </mxCell>
        <mxCell id="iIkBl-cms1_YrR2odn27-2" value="&lt;font style=&quot;font-size: 20px;&quot; face=&quot;Tahoma&quot;&gt;XII&lt;/font&gt;" style="rounded=1;whiteSpace=wrap;html=1;fillColor=#ffffff;fontColor=#0066CC;strokeColor=#004E9C;strokeWidth=2;" parent="1" vertex="1">
          <mxGeometry x="40" y="160" width="60" height="40" as="geometry" />
        </mxCell>
        <mxCell id="iIkBl-cms1_YrR2odn27-8" value="&lt;h1&gt;INTRINSIC PATHWAY&lt;/h1&gt;" style="text;html=1;align=center;verticalAlign=middle;resizable=0;points=[];autosize=1;strokeColor=none;fillColor=none;fontColor=#0066cc;fontFamily=Tahoma;" parent="1" vertex="1">
          <mxGeometry x="-130" y="-50" width="290" height="70" as="geometry" />
        </mxCell>
        <mxCell id="iIkBl-cms1_YrR2odn27-14" style="edgeStyle=orthogonalEdgeStyle;rounded=0;orthogonalLoop=1;jettySize=auto;html=1;curved=1;strokeWidth=3;strokeColor=#004E9C;exitX=0.5;exitY=0.5;exitDx=0;exitDy=0;exitPerimeter=0;" parent="1" source="iIkBl-cms1_YrR2odn27-16" edge="1">
          <mxGeometry relative="1" as="geometry">
            <mxPoint x="150" y="180" as="targetPoint" />
            <mxPoint x="90" y="61" as="sourcePoint" />
          </mxGeometry>
        </mxCell>
        <mxCell id="iIkBl-cms1_YrR2odn27-13" value="&lt;font color=&quot;#003366&quot; face=&quot;Tahoma&quot; style=&quot;font-size: 16px;&quot;&gt;COLLAGEN&lt;/font&gt;&lt;div&gt;&lt;font color=&quot;#003366&quot; face=&quot;Tahoma&quot; style=&quot;font-size: 16px;&quot;&gt;KALLIKREIN&lt;/font&gt;&lt;/div&gt;&lt;div&gt;&lt;font color=&quot;#003366&quot; face=&quot;Tahoma&quot; style=&quot;font-size: 16px;&quot;&gt;HMWK&lt;/font&gt;&lt;/div&gt;" style="text;html=1;align=right;verticalAlign=middle;resizable=0;points=[];autosize=1;strokeColor=none;fillColor=none;" parent="1" vertex="1">
          <mxGeometry x="-35" y="30" width="110" height="70" as="geometry" />
        </mxCell>
        <mxCell id="iIkBl-cms1_YrR2odn27-16" value="" style="shape=crossbar;whiteSpace=wrap;html=1;rounded=1;direction=south;strokeWidth=2;fillColor=#004E9C;strokeColor=#004E9C;" parent="1" vertex="1">
          <mxGeometry x="75" y="30" width="20" height="70" as="geometry" />
        </mxCell>
        <mxCell id="iIkBl-cms1_YrR2odn27-27" style="edgeStyle=orthogonalEdgeStyle;rounded=0;orthogonalLoop=1;jettySize=auto;html=1;strokeWidth=3;endSize=1;strokeColor=#004e9c;" parent="1" source="iIkBl-cms1_YrR2odn27-20" edge="1">
          <mxGeometry relative="1" as="geometry">
            <mxPoint x="310" y="360" as="targetPoint" />
          </mxGeometry>
        </mxCell>
        <mxCell id="iIkBl-cms1_YrR2odn27-20" value="&lt;font face=&quot;Tahoma&quot; style=&quot;font-size: 20px;&quot;&gt;XIa&lt;/font&gt;" style="rounded=1;whiteSpace=wrap;html=1;fillColor=#0066CC;strokeColor=#004E9C;fontColor=#ffffff;shadow=0;fillStyle=solid;" parent="1" vertex="1">
          <mxGeometry x="280" y="250" width="60" height="40" as="geometry" />
        </mxCell>
        <mxCell id="iIkBl-cms1_YrR2odn27-21" value="" style="edgeStyle=orthogonalEdgeStyle;rounded=0;orthogonalLoop=1;jettySize=auto;html=1;strokeWidth=3;strokeColor=#004E9C;flowAnimation=0;shadow=0;endSize=1;startSize=1;jumpSize=6;" parent="1" source="iIkBl-cms1_YrR2odn27-22" target="iIkBl-cms1_YrR2odn27-20" edge="1">
          <mxGeometry relative="1" as="geometry" />
        </mxCell>
        <mxCell id="iIkBl-cms1_YrR2odn27-22" value="&lt;font style=&quot;font-size: 20px;&quot; face=&quot;Tahoma&quot;&gt;XI&lt;/font&gt;" style="rounded=1;whiteSpace=wrap;html=1;fillColor=#ffffff;fontColor=#0066CC;strokeColor=#004E9C;strokeWidth=2;" parent="1" vertex="1">
          <mxGeometry x="120" y="250" width="60" height="40" as="geometry" />
        </mxCell>
        <mxCell id="iIkBl-cms1_YrR2odn27-42" style="edgeStyle=orthogonalEdgeStyle;rounded=0;orthogonalLoop=1;jettySize=auto;html=1;strokeWidth=4;strokeColor=#004e9c;" parent="1" source="iIkBl-cms1_YrR2odn27-23" edge="1">
          <mxGeometry relative="1" as="geometry">
            <mxPoint x="390" y="580" as="targetPoint" />
          </mxGeometry>
        </mxCell>
        <mxCell id="iIkBl-cms1_YrR2odn27-23" value="&lt;font face=&quot;Tahoma&quot; style=&quot;font-size: 20px;&quot;&gt;IXa&lt;/font&gt;" style="rounded=1;whiteSpace=wrap;html=1;fillColor=#0066CC;strokeColor=#004E9C;fontColor=#ffffff;shadow=0;fillStyle=solid;" parent="1" vertex="1">
          <mxGeometry x="360" y="340" width="60" height="40" as="geometry" />
        </mxCell>
        <mxCell id="iIkBl-cms1_YrR2odn27-24" value="" style="edgeStyle=orthogonalEdgeStyle;rounded=0;orthogonalLoop=1;jettySize=auto;html=1;strokeWidth=3;strokeColor=#004E9C;flowAnimation=0;shadow=0;endSize=1;startSize=1;jumpSize=6;" parent="1" source="iIkBl-cms1_YrR2odn27-25" target="iIkBl-cms1_YrR2odn27-23" edge="1">
          <mxGeometry relative="1" as="geometry" />
        </mxCell>
        <mxCell id="iIkBl-cms1_YrR2odn27-25" value="&lt;font style=&quot;font-size: 20px;&quot; face=&quot;Tahoma&quot;&gt;IX&lt;/font&gt;" style="rounded=1;whiteSpace=wrap;html=1;fillColor=#ffffff;fontColor=#0066CC;strokeColor=#004E9C;strokeWidth=2;" parent="1" vertex="1">
          <mxGeometry x="200" y="340" width="60" height="40" as="geometry" />
        </mxCell>
        <mxCell id="iIkBl-cms1_YrR2odn27-41" style="edgeStyle=orthogonalEdgeStyle;rounded=1;orthogonalLoop=1;jettySize=auto;html=1;curved=0;jumpStyle=arc;strokeWidth=3;strokeColor=#004e9c;" parent="1" source="iIkBl-cms1_YrR2odn27-30" edge="1">
          <mxGeometry relative="1" as="geometry">
            <mxPoint x="390" y="580" as="targetPoint" />
          </mxGeometry>
        </mxCell>
        <mxCell id="iIkBl-cms1_YrR2odn27-30" value="&lt;font face=&quot;Tahoma&quot; style=&quot;font-size: 20px;&quot;&gt;VIIIa&lt;/font&gt;" style="rounded=1;whiteSpace=wrap;html=1;fillColor=#0066CC;strokeColor=#004E9C;fontColor=#ffffff;shadow=0;fillStyle=solid;" parent="1" vertex="1">
          <mxGeometry x="120" y="400" width="60" height="40" as="geometry" />
        </mxCell>
        <mxCell id="iIkBl-cms1_YrR2odn27-31" value="" style="edgeStyle=orthogonalEdgeStyle;rounded=0;orthogonalLoop=1;jettySize=auto;html=1;strokeWidth=3;strokeColor=#004E9C;flowAnimation=0;shadow=0;endSize=1;startSize=1;jumpSize=6;" parent="1" source="iIkBl-cms1_YrR2odn27-32" target="iIkBl-cms1_YrR2odn27-30" edge="1">
          <mxGeometry relative="1" as="geometry" />
        </mxCell>
        <mxCell id="iIkBl-cms1_YrR2odn27-32" value="&lt;font style=&quot;font-size: 20px;&quot; face=&quot;Tahoma&quot;&gt;VIII&lt;/font&gt;" style="rounded=1;whiteSpace=wrap;html=1;fillColor=#ffffff;fontColor=#0066CC;strokeColor=#004E9C;strokeWidth=2;" parent="1" vertex="1">
          <mxGeometry x="-40" y="400" width="60" height="40" as="geometry" />
        </mxCell>
        <mxCell id="iIkBl-cms1_YrR2odn27-33" value="" style="rounded=0;whiteSpace=wrap;html=1;fillColor=#76608a;strokeWidth=3;strokeColor=#432d57;opacity=20;fontColor=#ffffff;" parent="1" vertex="1">
          <mxGeometry x="-120" y="500" width="920" height="440" as="geometry" />
        </mxCell>
        <mxCell id="iIkBl-cms1_YrR2odn27-34" value="&lt;h1&gt;&lt;font color=&quot;#4c0099&quot;&gt;COMMON PATHWAY&lt;/font&gt;&lt;/h1&gt;" style="text;html=1;align=center;verticalAlign=middle;resizable=0;points=[];autosize=1;strokeColor=none;fillColor=none;fontColor=#0066cc;fontFamily=Tahoma;" parent="1" vertex="1">
          <mxGeometry x="-80" y="500" width="270" height="70" as="geometry" />
        </mxCell>
        <mxCell id="iIkBl-cms1_YrR2odn27-53" style="edgeStyle=orthogonalEdgeStyle;rounded=0;orthogonalLoop=1;jettySize=auto;html=1;strokeWidth=3;strokeColor=#432d57;" parent="1" source="iIkBl-cms1_YrR2odn27-35" edge="1">
          <mxGeometry relative="1" as="geometry">
            <mxPoint x="460" y="740" as="targetPoint" />
          </mxGeometry>
        </mxCell>
        <mxCell id="iIkBl-cms1_YrR2odn27-35" value="&lt;font face=&quot;Tahoma&quot;&gt;&lt;span style=&quot;font-size: 20px;&quot;&gt;Xa&lt;/span&gt;&lt;/font&gt;" style="rounded=1;whiteSpace=wrap;html=1;fillColor=#76608a;fontColor=#ffffff;strokeColor=#432D57;strokeWidth=2;" parent="1" vertex="1">
          <mxGeometry x="430" y="560" width="60" height="40" as="geometry" />
        </mxCell>
        <mxCell id="iIkBl-cms1_YrR2odn27-36" value="&lt;font face=&quot;Tahoma&quot;&gt;&lt;span style=&quot;font-size: 20px;&quot;&gt;X&lt;/span&gt;&lt;/font&gt;" style="rounded=1;whiteSpace=wrap;html=1;strokeWidth=2;strokeColor=#432D57;fontColor=#432D57;" parent="1" vertex="1">
          <mxGeometry x="270" y="560" width="60" height="40" as="geometry" />
        </mxCell>
        <mxCell id="iIkBl-cms1_YrR2odn27-38" value="" style="edgeStyle=orthogonalEdgeStyle;rounded=0;orthogonalLoop=1;jettySize=auto;html=1;strokeWidth=3;strokeColor=#432d57;flowAnimation=0;shadow=0;endSize=1;startSize=1;jumpSize=6;" parent="1" edge="1">
          <mxGeometry relative="1" as="geometry">
            <mxPoint x="330" y="579.5" as="sourcePoint" />
            <mxPoint x="430" y="579.5" as="targetPoint" />
          </mxGeometry>
        </mxCell>
        <mxCell id="iIkBl-cms1_YrR2odn27-39" value="&lt;font color=&quot;#432d57&quot; face=&quot;Tahoma&quot;&gt;&lt;span style=&quot;font-size: 20px;&quot;&gt;X&lt;/span&gt;&lt;/font&gt;" style="rounded=1;whiteSpace=wrap;html=1;strokeWidth=2;strokeColor=#432D57;" parent="1" vertex="1">
          <mxGeometry x="590" y="560" width="60" height="40" as="geometry" />
        </mxCell>
        <mxCell id="iIkBl-cms1_YrR2odn27-40" value="" style="edgeStyle=orthogonalEdgeStyle;rounded=0;orthogonalLoop=1;jettySize=auto;html=1;strokeWidth=3;strokeColor=#432d57;flowAnimation=0;shadow=0;endSize=1;startSize=1;jumpSize=6;entryX=1;entryY=0.5;entryDx=0;entryDy=0;exitX=0;exitY=0.5;exitDx=0;exitDy=0;" parent="1" source="iIkBl-cms1_YrR2odn27-39" target="iIkBl-cms1_YrR2odn27-35" edge="1">
          <mxGeometry relative="1" as="geometry">
            <mxPoint x="340" y="589.5" as="sourcePoint" />
            <mxPoint x="440" y="589.5" as="targetPoint" />
          </mxGeometry>
        </mxCell>
        <mxCell id="iIkBl-cms1_YrR2odn27-55" style="edgeStyle=orthogonalEdgeStyle;rounded=0;orthogonalLoop=1;jettySize=auto;html=1;curved=1;strokeWidth=3;strokeColor=#432d57;" parent="1" source="iIkBl-cms1_YrR2odn27-43" edge="1">
          <mxGeometry relative="1" as="geometry">
            <mxPoint x="460" y="740" as="targetPoint" />
          </mxGeometry>
        </mxCell>
        <mxCell id="iIkBl-cms1_YrR2odn27-43" value="&lt;font face=&quot;Tahoma&quot;&gt;&lt;span style=&quot;font-size: 20px;&quot;&gt;Va&lt;/span&gt;&lt;/font&gt;" style="rounded=1;whiteSpace=wrap;html=1;fillColor=#76608a;fontColor=#ffffff;strokeColor=#432D57;strokeWidth=2;" parent="1" vertex="1">
          <mxGeometry x="195" y="650" width="60" height="40" as="geometry" />
        </mxCell>
        <mxCell id="iIkBl-cms1_YrR2odn27-44" value="&lt;font face=&quot;Tahoma&quot;&gt;&lt;span style=&quot;font-size: 20px;&quot;&gt;V&lt;/span&gt;&lt;/font&gt;" style="rounded=1;whiteSpace=wrap;html=1;strokeWidth=2;strokeColor=#432D57;fontColor=#432D57;" parent="1" vertex="1">
          <mxGeometry x="35" y="650" width="60" height="40" as="geometry" />
        </mxCell>
        <mxCell id="iIkBl-cms1_YrR2odn27-45" value="" style="edgeStyle=orthogonalEdgeStyle;rounded=0;orthogonalLoop=1;jettySize=auto;html=1;strokeWidth=3;strokeColor=#432d57;flowAnimation=0;shadow=0;endSize=1;startSize=1;jumpSize=6;" parent="1" edge="1">
          <mxGeometry relative="1" as="geometry">
            <mxPoint x="95" y="669.5" as="sourcePoint" />
            <mxPoint x="195" y="669.5" as="targetPoint" />
          </mxGeometry>
        </mxCell>
        <mxCell id="iIkBl-cms1_YrR2odn27-60" style="edgeStyle=orthogonalEdgeStyle;rounded=0;orthogonalLoop=1;jettySize=auto;html=1;strokeWidth=3;strokeColor=#432D57;" parent="1" source="iIkBl-cms1_YrR2odn27-47" edge="1">
          <mxGeometry relative="1" as="geometry">
            <mxPoint x="540" y="830" as="targetPoint" />
          </mxGeometry>
        </mxCell>
        <mxCell id="iIkBl-cms1_YrR2odn27-65" style="edgeStyle=orthogonalEdgeStyle;rounded=0;orthogonalLoop=1;jettySize=auto;html=1;strokeWidth=3;strokeColor=#432D57;" parent="1" source="iIkBl-cms1_YrR2odn27-47" edge="1">
          <mxGeometry relative="1" as="geometry">
            <mxPoint x="140" y="670" as="targetPoint" />
            <Array as="points">
              <mxPoint x="540" y="790" />
              <mxPoint x="140" y="790" />
            </Array>
          </mxGeometry>
        </mxCell>
        <mxCell id="iIkBl-cms1_YrR2odn27-66" style="edgeStyle=orthogonalEdgeStyle;rounded=0;orthogonalLoop=1;jettySize=auto;html=1;strokeWidth=3;strokeColor=#432D57;" parent="1" source="iIkBl-cms1_YrR2odn27-47" edge="1">
          <mxGeometry relative="1" as="geometry">
            <mxPoint x="300" y="900" as="targetPoint" />
            <Array as="points">
              <mxPoint x="540" y="790" />
              <mxPoint x="301" y="790" />
            </Array>
          </mxGeometry>
        </mxCell>
        <mxCell id="iIkBl-cms1_YrR2odn27-99" style="edgeStyle=orthogonalEdgeStyle;rounded=0;orthogonalLoop=1;jettySize=auto;html=1;strokeWidth=3;strokeColor=#432D57;" parent="1" source="iIkBl-cms1_YrR2odn27-47" edge="1">
          <mxGeometry relative="1" as="geometry">
            <mxPoint x="70" y="420" as="targetPoint" />
            <Array as="points">
              <mxPoint x="540" y="790" />
              <mxPoint x="-90" y="790" />
              <mxPoint x="-90" y="350" />
              <mxPoint x="70" y="350" />
            </Array>
          </mxGeometry>
        </mxCell>
        <mxCell id="iIkBl-cms1_YrR2odn27-47" value="&lt;font face=&quot;Tahoma&quot;&gt;&lt;span style=&quot;font-size: 20px;&quot;&gt;IIa&lt;/span&gt;&lt;/font&gt;" style="rounded=1;whiteSpace=wrap;html=1;fillColor=#76608a;fontColor=#ffffff;strokeColor=#432D57;strokeWidth=2;" parent="1" vertex="1">
          <mxGeometry x="510" y="720" width="60" height="40" as="geometry" />
        </mxCell>
        <mxCell id="iIkBl-cms1_YrR2odn27-48" value="&lt;font face=&quot;Tahoma&quot;&gt;&lt;span style=&quot;font-size: 20px;&quot;&gt;II&lt;/span&gt;&lt;/font&gt;" style="rounded=1;whiteSpace=wrap;html=1;strokeWidth=2;strokeColor=#432D57;fontColor=#432D57;" parent="1" vertex="1">
          <mxGeometry x="350" y="720" width="60" height="40" as="geometry" />
        </mxCell>
        <mxCell id="iIkBl-cms1_YrR2odn27-49" value="" style="edgeStyle=orthogonalEdgeStyle;rounded=0;orthogonalLoop=1;jettySize=auto;html=1;strokeWidth=4;strokeColor=#432d57;flowAnimation=0;shadow=0;endSize=1;startSize=1;jumpSize=6;" parent="1" edge="1">
          <mxGeometry relative="1" as="geometry">
            <mxPoint x="410" y="739.5" as="sourcePoint" />
            <mxPoint x="510" y="739.5" as="targetPoint" />
          </mxGeometry>
        </mxCell>
        <mxCell id="iIkBl-cms1_YrR2odn27-56" value="&lt;h3&gt;&lt;font face=&quot;Tahoma&quot; color=&quot;#4c0099&quot;&gt;(THROMBIN)&lt;/font&gt;&lt;/h3&gt;" style="text;html=1;align=center;verticalAlign=middle;resizable=0;points=[];autosize=1;strokeColor=none;fillColor=none;fontColor=#0066cc;" parent="1" vertex="1">
          <mxGeometry x="570" y="710" width="120" height="60" as="geometry" />
        </mxCell>
        <mxCell id="iIkBl-cms1_YrR2odn27-70" style="edgeStyle=orthogonalEdgeStyle;rounded=0;orthogonalLoop=1;jettySize=auto;html=1;entryX=0.5;entryY=0;entryDx=0;entryDy=0;strokeColor=#432D57;strokeWidth=3;" parent="1" source="iIkBl-cms1_YrR2odn27-57" target="iIkBl-cms1_YrR2odn27-68" edge="1">
          <mxGeometry relative="1" as="geometry" />
        </mxCell>
        <mxCell id="iIkBl-cms1_YrR2odn27-57" value="&lt;font face=&quot;Tahoma&quot;&gt;&lt;span style=&quot;font-size: 20px;&quot;&gt;Ia&lt;/span&gt;&lt;/font&gt;" style="rounded=1;whiteSpace=wrap;html=1;fillColor=#76608a;fontColor=#ffffff;strokeColor=#432D57;strokeWidth=2;" parent="1" vertex="1">
          <mxGeometry x="590" y="810" width="60" height="40" as="geometry" />
        </mxCell>
        <mxCell id="iIkBl-cms1_YrR2odn27-58" value="&lt;font face=&quot;Tahoma&quot;&gt;&lt;span style=&quot;font-size: 20px;&quot;&gt;I&lt;/span&gt;&lt;/font&gt;" style="rounded=1;whiteSpace=wrap;html=1;strokeWidth=2;strokeColor=#432D57;fontColor=#432D57;" parent="1" vertex="1">
          <mxGeometry x="430" y="810" width="60" height="40" as="geometry" />
        </mxCell>
        <mxCell id="iIkBl-cms1_YrR2odn27-59" value="" style="edgeStyle=orthogonalEdgeStyle;rounded=0;orthogonalLoop=1;jettySize=auto;html=1;strokeWidth=3;strokeColor=#432d57;flowAnimation=0;shadow=0;endSize=1;startSize=1;jumpSize=6;" parent="1" edge="1">
          <mxGeometry relative="1" as="geometry">
            <mxPoint x="490" y="829.5" as="sourcePoint" />
            <mxPoint x="590" y="829.5" as="targetPoint" />
          </mxGeometry>
        </mxCell>
        <mxCell id="iIkBl-cms1_YrR2odn27-61" value="&lt;h3&gt;&lt;font face=&quot;Tahoma&quot; color=&quot;#4c0099&quot;&gt;(FIBRIN)&lt;/font&gt;&lt;/h3&gt;" style="text;html=1;align=center;verticalAlign=middle;resizable=0;points=[];autosize=1;strokeColor=none;fillColor=none;fontColor=#0066cc;" parent="1" vertex="1">
          <mxGeometry x="650" y="800" width="90" height="60" as="geometry" />
        </mxCell>
        <mxCell id="iIkBl-cms1_YrR2odn27-69" style="edgeStyle=orthogonalEdgeStyle;rounded=0;orthogonalLoop=1;jettySize=auto;html=1;entryX=0.5;entryY=0;entryDx=0;entryDy=0;curved=1;strokeColor=#432D57;strokeWidth=3;" parent="1" source="iIkBl-cms1_YrR2odn27-62" target="iIkBl-cms1_YrR2odn27-68" edge="1">
          <mxGeometry relative="1" as="geometry" />
        </mxCell>
        <mxCell id="iIkBl-cms1_YrR2odn27-62" value="&lt;font face=&quot;Tahoma&quot;&gt;&lt;span style=&quot;font-size: 20px;&quot;&gt;XIIIa&lt;/span&gt;&lt;/font&gt;" style="rounded=1;whiteSpace=wrap;html=1;fillColor=#76608a;fontColor=#ffffff;strokeColor=#432D57;strokeWidth=2;" parent="1" vertex="1">
          <mxGeometry x="350" y="880" width="60" height="40" as="geometry" />
        </mxCell>
        <mxCell id="iIkBl-cms1_YrR2odn27-63" value="&lt;font face=&quot;Tahoma&quot;&gt;&lt;span style=&quot;font-size: 20px;&quot;&gt;XIII&lt;/span&gt;&lt;/font&gt;" style="rounded=1;whiteSpace=wrap;html=1;strokeWidth=2;strokeColor=#432D57;fontColor=#432D57;" parent="1" vertex="1">
          <mxGeometry x="190" y="880" width="60" height="40" as="geometry" />
        </mxCell>
        <mxCell id="iIkBl-cms1_YrR2odn27-64" value="" style="edgeStyle=orthogonalEdgeStyle;rounded=0;orthogonalLoop=1;jettySize=auto;html=1;strokeWidth=3;strokeColor=#432d57;flowAnimation=0;shadow=0;endSize=1;startSize=1;jumpSize=6;" parent="1" edge="1">
          <mxGeometry relative="1" as="geometry">
            <mxPoint x="250" y="899.5" as="sourcePoint" />
            <mxPoint x="350" y="899.5" as="targetPoint" />
          </mxGeometry>
        </mxCell>
        <mxCell id="iIkBl-cms1_YrR2odn27-67" value="&lt;h3&gt;&lt;font face=&quot;Tahoma&quot; color=&quot;#4c0099&quot;&gt;(STABILISING FACTOR)&lt;/font&gt;&lt;/h3&gt;" style="text;html=1;align=center;verticalAlign=middle;resizable=0;points=[];autosize=1;strokeColor=none;fillColor=none;fontColor=#0066cc;" parent="1" vertex="1">
          <mxGeometry y="870" width="190" height="60" as="geometry" />
        </mxCell>
        <mxCell id="iIkBl-cms1_YrR2odn27-68" value="&lt;font face=&quot;Tahoma&quot;&gt;&lt;span style=&quot;font-size: 20px;&quot;&gt;STABILE FIBRIN CLOT&lt;/span&gt;&lt;/font&gt;" style="rounded=1;whiteSpace=wrap;html=1;fillColor=#a20025;fontColor=#ffffff;strokeColor=#6F0000;strokeWidth=2;" parent="1" vertex="1">
          <mxGeometry x="510" y="980" width="220" height="40" as="geometry" />
        </mxCell>
        <mxCell id="iIkBl-cms1_YrR2odn27-72" value="" style="rounded=0;whiteSpace=wrap;html=1;fillColor=#f0a30a;strokeWidth=3;strokeColor=#BD7000;opacity=20;fontColor=#000000;" parent="1" vertex="1">
          <mxGeometry x="490" y="180" width="540" height="290" as="geometry" />
        </mxCell>
        <mxCell id="iIkBl-cms1_YrR2odn27-73" value="&lt;h1&gt;&lt;font color=&quot;#bd7000&quot;&gt;EXTRINSIC PATHWAY&lt;/font&gt;&lt;/h1&gt;" style="text;html=1;align=center;verticalAlign=middle;resizable=0;points=[];autosize=1;strokeColor=none;fillColor=none;fontColor=#0066cc;fontFamily=Tahoma;" parent="1" vertex="1">
          <mxGeometry x="495" y="175" width="290" height="70" as="geometry" />
        </mxCell>
        <mxCell id="iIkBl-cms1_YrR2odn27-87" style="edgeStyle=orthogonalEdgeStyle;rounded=0;orthogonalLoop=1;jettySize=auto;html=1;strokeColor=#BD7000;strokeWidth=3;" parent="1" source="iIkBl-cms1_YrR2odn27-74" edge="1">
          <mxGeometry relative="1" as="geometry">
            <mxPoint x="530" y="580" as="targetPoint" />
          </mxGeometry>
        </mxCell>
        <mxCell id="iIkBl-cms1_YrR2odn27-74" value="&lt;font color=&quot;#ffffff&quot;&gt;&lt;span style=&quot;font-size: 20px;&quot;&gt;IIIa&lt;/span&gt;&lt;/font&gt;" style="rounded=1;whiteSpace=wrap;html=1;fillColor=#f0a30a;fontColor=#000000;strokeColor=#BD7000;strokeWidth=2;fontFamily=Tahoma;" parent="1" vertex="1">
          <mxGeometry x="500" y="340" width="60" height="40" as="geometry" />
        </mxCell>
        <mxCell id="iIkBl-cms1_YrR2odn27-75" value="&lt;font face=&quot;Tahoma&quot;&gt;&lt;span style=&quot;font-size: 20px;&quot;&gt;III&lt;/span&gt;&lt;/font&gt;" style="rounded=1;whiteSpace=wrap;html=1;strokeWidth=2;strokeColor=#BD7000;fontColor=#BD7000;" parent="1" vertex="1">
          <mxGeometry x="660" y="340" width="60" height="40" as="geometry" />
        </mxCell>
        <mxCell id="iIkBl-cms1_YrR2odn27-76" value="" style="edgeStyle=orthogonalEdgeStyle;rounded=0;orthogonalLoop=1;jettySize=auto;html=1;strokeWidth=3;strokeColor=#BD7000;flowAnimation=0;shadow=0;endSize=1;startSize=1;jumpSize=6;entryX=1;entryY=0.5;entryDx=0;entryDy=0;exitX=0;exitY=0.5;exitDx=0;exitDy=0;fontColor=#BD7000;" parent="1" source="iIkBl-cms1_YrR2odn27-75" target="iIkBl-cms1_YrR2odn27-74" edge="1">
          <mxGeometry relative="1" as="geometry">
            <mxPoint x="410" y="369.5" as="sourcePoint" />
            <mxPoint x="510" y="369.5" as="targetPoint" />
          </mxGeometry>
        </mxCell>
        <mxCell id="iIkBl-cms1_YrR2odn27-81" style="edgeStyle=orthogonalEdgeStyle;rounded=0;orthogonalLoop=1;jettySize=auto;html=1;curved=1;strokeColor=#BD7000;strokeWidth=3;" parent="1" source="iIkBl-cms1_YrR2odn27-80" edge="1">
          <mxGeometry relative="1" as="geometry">
            <mxPoint x="610" y="360" as="targetPoint" />
          </mxGeometry>
        </mxCell>
        <mxCell id="iIkBl-cms1_YrR2odn27-80" value="&lt;h2&gt;&lt;font color=&quot;#734400&quot;&gt;DAMAGE TO ENDOTHELIAL TISSUE&lt;/font&gt;&lt;/h2&gt;" style="text;html=1;align=center;verticalAlign=middle;resizable=0;points=[];autosize=1;strokeColor=none;fillColor=none;fontColor=#0066cc;fontFamily=Tahoma;" parent="1" vertex="1">
          <mxGeometry x="680" y="240" width="340" height="60" as="geometry" />
        </mxCell>
        <mxCell id="iIkBl-cms1_YrR2odn27-85" style="edgeStyle=orthogonalEdgeStyle;rounded=1;orthogonalLoop=1;jettySize=auto;html=1;curved=0;strokeColor=#BD7000;strokeWidth=3;" parent="1" source="iIkBl-cms1_YrR2odn27-82" edge="1">
          <mxGeometry relative="1" as="geometry">
            <mxPoint x="530" y="580" as="targetPoint" />
          </mxGeometry>
        </mxCell>
        <mxCell id="iIkBl-cms1_YrR2odn27-82" value="&lt;font color=&quot;#ffffff&quot;&gt;&lt;span style=&quot;font-size: 20px;&quot;&gt;VIIa&lt;/span&gt;&lt;/font&gt;" style="rounded=1;whiteSpace=wrap;html=1;fillColor=#f0a30a;fontColor=#000000;strokeColor=#BD7000;strokeWidth=2;fontFamily=Tahoma;" parent="1" vertex="1">
          <mxGeometry x="760" y="400" width="60" height="40" as="geometry" />
        </mxCell>
        <mxCell id="iIkBl-cms1_YrR2odn27-83" value="&lt;font face=&quot;Tahoma&quot;&gt;&lt;span style=&quot;font-size: 20px;&quot;&gt;VII&lt;/span&gt;&lt;/font&gt;" style="rounded=1;whiteSpace=wrap;html=1;strokeWidth=2;strokeColor=#BD7000;fontColor=#BD7000;" parent="1" vertex="1">
          <mxGeometry x="920" y="400" width="60" height="40" as="geometry" />
        </mxCell>
        <mxCell id="iIkBl-cms1_YrR2odn27-84" value="" style="edgeStyle=orthogonalEdgeStyle;rounded=0;orthogonalLoop=1;jettySize=auto;html=1;strokeWidth=3;strokeColor=#BD7000;flowAnimation=0;shadow=0;endSize=1;startSize=1;jumpSize=6;entryX=1;entryY=0.5;entryDx=0;entryDy=0;exitX=0;exitY=0.5;exitDx=0;exitDy=0;fontColor=#BD7000;" parent="1" source="iIkBl-cms1_YrR2odn27-83" target="iIkBl-cms1_YrR2odn27-82" edge="1">
          <mxGeometry relative="1" as="geometry">
            <mxPoint x="670" y="429.5" as="sourcePoint" />
            <mxPoint x="770" y="429.5" as="targetPoint" />
            <Array as="points">
              <mxPoint x="850" y="420" />
              <mxPoint x="850" y="420" />
            </Array>
          </mxGeometry>
        </mxCell>
        <mxCell id="iIkBl-cms1_YrR2odn27-92" style="edgeStyle=orthogonalEdgeStyle;rounded=1;orthogonalLoop=1;jettySize=auto;html=1;strokeWidth=3;curved=0;strokeColor=#004E9C;" parent="1" source="iIkBl-cms1_YrR2odn27-88" edge="1">
          <mxGeometry relative="1" as="geometry">
            <mxPoint x="390" y="580" as="targetPoint" />
          </mxGeometry>
        </mxCell>
        <mxCell id="iIkBl-cms1_YrR2odn27-93" style="edgeStyle=orthogonalEdgeStyle;rounded=1;orthogonalLoop=1;jettySize=auto;html=1;curved=0;strokeColor=#BD7000;strokeWidth=3;" parent="1" source="iIkBl-cms1_YrR2odn27-88" edge="1">
          <mxGeometry relative="1" as="geometry">
            <mxPoint x="530" y="580" as="targetPoint" />
          </mxGeometry>
        </mxCell>
        <mxCell id="iIkBl-cms1_YrR2odn27-88" value="&lt;font style=&quot;font-size: 20px;&quot; face=&quot;Tahoma&quot; color=&quot;#006600&quot;&gt;Ca&lt;sup&gt;2+&lt;/sup&gt;&lt;/font&gt;" style="text;html=1;align=center;verticalAlign=middle;resizable=0;points=[];autosize=1;strokeColor=none;fillColor=none;fontStyle=1;strokeWidth=3;" parent="1" vertex="1">
          <mxGeometry x="430" y="400" width="70" height="40" as="geometry" />
        </mxCell>
        <mxCell id="iIkBl-cms1_YrR2odn27-95" style="edgeStyle=orthogonalEdgeStyle;rounded=0;orthogonalLoop=1;jettySize=auto;html=1;curved=1;strokeWidth=3;strokeColor=#432D57;" parent="1" source="iIkBl-cms1_YrR2odn27-89" edge="1">
          <mxGeometry relative="1" as="geometry">
            <mxPoint x="460" y="740" as="targetPoint" />
          </mxGeometry>
        </mxCell>
        <mxCell id="iIkBl-cms1_YrR2odn27-89" value="&lt;font style=&quot;font-size: 20px;&quot; face=&quot;Tahoma&quot; color=&quot;#006600&quot;&gt;Ca&lt;sup&gt;2+&lt;/sup&gt;&lt;/font&gt;" style="text;html=1;align=center;verticalAlign=middle;resizable=0;points=[];autosize=1;strokeColor=none;fillColor=none;fontStyle=1" parent="1" vertex="1">
          <mxGeometry x="495" y="650" width="70" height="40" as="geometry" />
        </mxCell>
        <mxCell id="iIkBl-cms1_YrR2odn27-97" style="edgeStyle=orthogonalEdgeStyle;rounded=0;orthogonalLoop=1;jettySize=auto;html=1;curved=1;strokeWidth=3;entryX=0.5;entryY=0;entryDx=0;entryDy=0;strokeColor=#432D57;" parent="1" source="iIkBl-cms1_YrR2odn27-90" target="iIkBl-cms1_YrR2odn27-68" edge="1">
          <mxGeometry relative="1" as="geometry">
            <mxPoint x="620" y="970" as="targetPoint" />
            <Array as="points">
              <mxPoint x="620" y="910" />
            </Array>
          </mxGeometry>
        </mxCell>
        <mxCell id="iIkBl-cms1_YrR2odn27-90" value="&lt;font style=&quot;font-size: 20px;&quot; face=&quot;Tahoma&quot; color=&quot;#006600&quot;&gt;Ca&lt;sup&gt;2+&lt;/sup&gt;&lt;/font&gt;" style="text;html=1;align=center;verticalAlign=middle;resizable=0;points=[];autosize=1;strokeColor=none;fillColor=none;fontStyle=1" parent="1" vertex="1">
          <mxGeometry x="690" y="890" width="70" height="40" as="geometry" />
        </mxCell>
        <mxCell id="iIkBl-cms1_YrR2odn27-94" style="edgeStyle=orthogonalEdgeStyle;rounded=0;orthogonalLoop=1;jettySize=auto;html=1;curved=1;strokeWidth=3;strokeColor=#004E9C;" parent="1" source="iIkBl-cms1_YrR2odn27-91" edge="1">
          <mxGeometry relative="1" as="geometry">
            <mxPoint x="310" y="360" as="targetPoint" />
          </mxGeometry>
        </mxCell>
        <mxCell id="iIkBl-cms1_YrR2odn27-91" value="&lt;font style=&quot;font-size: 20px;&quot; face=&quot;Tahoma&quot; color=&quot;#006600&quot;&gt;Ca&lt;sup&gt;2+&lt;/sup&gt;&lt;/font&gt;" style="text;html=1;align=center;verticalAlign=middle;resizable=0;points=[];autosize=1;strokeColor=none;fillColor=none;fontStyle=1" parent="1" vertex="1">
          <mxGeometry x="370" y="270" width="70" height="40" as="geometry" />
        </mxCell>
        <mxCell id="iIkBl-cms1_YrR2odn27-104" style="edgeStyle=orthogonalEdgeStyle;rounded=0;orthogonalLoop=1;jettySize=auto;html=1;entryX=0.5;entryY=1;entryDx=0;entryDy=0;strokeColor=#B20000;strokeWidth=3;" parent="1" source="iIkBl-cms1_YrR2odn27-102" target="iIkBl-cms1_YrR2odn27-103" edge="1">
          <mxGeometry relative="1" as="geometry" />
        </mxCell>
        <mxCell id="iIkBl-cms1_YrR2odn27-102" value="&lt;font color=&quot;#b20000&quot; face=&quot;Tahoma&quot;&gt;&lt;span style=&quot;font-size: 20px;&quot;&gt;Protein C&lt;/span&gt;&lt;/font&gt;" style="rounded=1;whiteSpace=wrap;html=1;strokeWidth=2;strokeColor=#B20000;" parent="1" vertex="1">
          <mxGeometry x="-290" y="880" width="120" height="40" as="geometry" />
        </mxCell>
        <mxCell id="iIkBl-cms1_YrR2odn27-108" style="edgeStyle=orthogonalEdgeStyle;rounded=0;orthogonalLoop=1;jettySize=auto;html=1;curved=1;dashed=1;strokeColor=#B20000;endSize=0;startSize=0;strokeWidth=3;sourcePerimeterSpacing=0;endArrow=baseDash;endFill=0;" parent="1" source="iIkBl-cms1_YrR2odn27-103" target="iIkBl-cms1_YrR2odn27-109" edge="1">
          <mxGeometry relative="1" as="geometry">
            <mxPoint x="70" y="440" as="targetPoint" />
            <Array as="points">
              <mxPoint x="-230" y="480" />
              <mxPoint x="145" y="480" />
            </Array>
          </mxGeometry>
        </mxCell>
        <mxCell id="iIkBl-cms1_YrR2odn27-112" style="edgeStyle=orthogonalEdgeStyle;rounded=0;orthogonalLoop=1;jettySize=auto;html=1;dashed=1;curved=1;strokeWidth=3;strokeColor=#B20000;startSize=0;endSize=0;endArrow=baseDash;endFill=0;" parent="1" source="iIkBl-cms1_YrR2odn27-103" target="iIkBl-cms1_YrR2odn27-113" edge="1">
          <mxGeometry relative="1" as="geometry">
            <mxPoint x="140" y="650" as="targetPoint" />
            <Array as="points">
              <mxPoint x="-230" y="590" />
              <mxPoint x="220" y="590" />
            </Array>
          </mxGeometry>
        </mxCell>
        <mxCell id="iIkBl-cms1_YrR2odn27-103" value="&lt;font face=&quot;Tahoma&quot;&gt;&lt;span style=&quot;font-size: 20px;&quot;&gt;active Protein C&lt;/span&gt;&lt;/font&gt;" style="rounded=1;whiteSpace=wrap;html=1;fillColor=#e51400;fontColor=#ffffff;strokeColor=#B20000;strokeWidth=2;" parent="1" vertex="1">
          <mxGeometry x="-290" y="740" width="120" height="60" as="geometry" />
        </mxCell>
        <mxCell id="iIkBl-cms1_YrR2odn27-130" style="edgeStyle=orthogonalEdgeStyle;rounded=0;orthogonalLoop=1;jettySize=auto;html=1;strokeWidth=3;strokeColor=#B20000;" parent="1" source="iIkBl-cms1_YrR2odn27-105" edge="1">
          <mxGeometry relative="1" as="geometry">
            <mxPoint x="-230" y="840" as="targetPoint" />
          </mxGeometry>
        </mxCell>
        <mxCell id="iIkBl-cms1_YrR2odn27-105" value="&lt;font face=&quot;Tahoma&quot;&gt;&lt;span style=&quot;font-size: 20px;&quot;&gt;Protein S&lt;/span&gt;&lt;/font&gt;" style="rounded=1;whiteSpace=wrap;html=1;fillColor=#e51400;fontColor=#ffffff;strokeColor=#B20000;strokeWidth=2;" parent="1" vertex="1">
          <mxGeometry x="-500" y="820" width="120" height="40" as="geometry" />
        </mxCell>
        <mxCell id="iIkBl-cms1_YrR2odn27-109" value="" style="line;strokeWidth=4;html=1;perimeter=backbonePerimeter;points=[];outlineConnect=0;strokeColor=#B20000;" parent="1" vertex="1">
          <mxGeometry x="130" y="450" width="30" height="10" as="geometry" />
        </mxCell>
        <mxCell id="iIkBl-cms1_YrR2odn27-113" value="" style="line;strokeWidth=4;html=1;perimeter=backbonePerimeter;points=[];outlineConnect=0;strokeColor=#B20000;" parent="1" vertex="1">
          <mxGeometry x="205" y="630" width="30" height="10" as="geometry" />
        </mxCell>
        <mxCell id="iIkBl-cms1_YrR2odn27-118" style="edgeStyle=orthogonalEdgeStyle;rounded=0;orthogonalLoop=1;jettySize=auto;html=1;dashed=1;endArrow=baseDash;endFill=0;strokeWidth=3;strokeColor=#B20000;curved=1;endSize=0;startSize=0;" parent="1" source="iIkBl-cms1_YrR2odn27-119" edge="1">
          <mxGeometry relative="1" as="geometry">
            <mxPoint x="700" y="740" as="targetPoint" />
            <Array as="points">
              <mxPoint x="691" y="740" />
            </Array>
          </mxGeometry>
        </mxCell>
        <mxCell id="iIkBl-cms1_YrR2odn27-122" style="edgeStyle=orthogonalEdgeStyle;rounded=0;orthogonalLoop=1;jettySize=auto;html=1;dashed=1;curved=1;strokeWidth=3;strokeColor=#B20000;endArrow=baseDash;endFill=0;endSize=0;startSize=5;" parent="1" source="iIkBl-cms1_YrR2odn27-117" edge="1">
          <mxGeometry relative="1" as="geometry">
            <mxPoint x="500" y="610" as="targetPoint" />
            <Array as="points">
              <mxPoint x="-235" y="1110" />
              <mxPoint x="920" y="1110" />
              <mxPoint x="920" y="620" />
            </Array>
          </mxGeometry>
        </mxCell>
        <mxCell id="iIkBl-cms1_YrR2odn27-117" value="&lt;font face=&quot;Tahoma&quot;&gt;&lt;span style=&quot;font-size: 20px;&quot;&gt;antithrombin&lt;/span&gt;&lt;/font&gt;" style="rounded=1;whiteSpace=wrap;html=1;fillColor=#e51400;fontColor=#ffffff;strokeColor=#B20000;strokeWidth=2;" parent="1" vertex="1">
          <mxGeometry x="-295" y="970" width="130" height="40" as="geometry" />
        </mxCell>
        <mxCell id="iIkBl-cms1_YrR2odn27-120" value="" style="edgeStyle=orthogonalEdgeStyle;rounded=0;orthogonalLoop=1;jettySize=auto;html=1;dashed=1;endArrow=baseDash;endFill=0;strokeWidth=3;strokeColor=#B20000;curved=1;endSize=0;startSize=0;" parent="1" source="iIkBl-cms1_YrR2odn27-117" target="iIkBl-cms1_YrR2odn27-119" edge="1">
          <mxGeometry relative="1" as="geometry">
            <mxPoint x="-235" y="1040" as="sourcePoint" />
            <mxPoint x="700" y="740" as="targetPoint" />
            <Array as="points">
              <mxPoint x="-235" y="1110" />
              <mxPoint x="870" y="1110" />
              <mxPoint x="870" y="740" />
            </Array>
          </mxGeometry>
        </mxCell>
        <mxCell id="iIkBl-cms1_YrR2odn27-119" value="" style="line;strokeWidth=2;direction=south;html=1;strokeColor=#B20000;" parent="1" vertex="1">
          <mxGeometry x="690" y="730" width="10" height="20" as="geometry" />
        </mxCell>
        <mxCell id="iIkBl-cms1_YrR2odn27-125" value="" style="endArrow=none;html=1;rounded=0;strokeWidth=3;strokeColor=#B20000;" parent="1" edge="1">
          <mxGeometry width="50" height="50" relative="1" as="geometry">
            <mxPoint x="510" y="600" as="sourcePoint" />
            <mxPoint x="490" y="620" as="targetPoint" />
          </mxGeometry>
        </mxCell>
        <mxCell id="iIkBl-cms1_YrR2odn27-126" value="&lt;font face=&quot;Tahoma&quot;&gt;&lt;span style=&quot;font-size: 20px;&quot;&gt;Trombomodulin&lt;/span&gt;&lt;/font&gt;" style="rounded=1;whiteSpace=wrap;html=1;fillColor=#e51400;fontColor=#ffffff;strokeColor=#B20000;strokeWidth=2;" parent="1" vertex="1">
          <mxGeometry x="-440" y="900" width="150" height="40" as="geometry" />
        </mxCell>
        <mxCell id="iIkBl-cms1_YrR2odn27-127" value="&lt;h1&gt;&lt;font color=&quot;#b20000&quot;&gt;REGULATORS&lt;/font&gt;&lt;/h1&gt;" style="text;html=1;align=center;verticalAlign=middle;resizable=0;points=[];autosize=1;strokeColor=none;fillColor=none;fontColor=#0066cc;fontFamily=Tahoma;" parent="1" vertex="1">
          <mxGeometry x="-530" y="620" width="190" height="70" as="geometry" />
        </mxCell>
        <mxCell id="iIkBl-cms1_YrR2odn27-131" value="&lt;h3&gt;&lt;font face=&quot;Tahoma&quot; color=&quot;#4c0099&quot;&gt;(FIBRINOGEN)&lt;/font&gt;&lt;/h3&gt;" style="text;html=1;align=center;verticalAlign=middle;resizable=0;points=[];autosize=1;strokeColor=none;fillColor=none;fontColor=#0066cc;" parent="1" vertex="1">
          <mxGeometry x="300" y="800" width="130" height="60" as="geometry" />
        </mxCell>
        <mxCell id="iIkBl-cms1_YrR2odn27-132" value="&lt;h3&gt;&lt;font face=&quot;Tahoma&quot; color=&quot;#4c0099&quot;&gt;(PROTHROMBIN)&lt;/font&gt;&lt;/h3&gt;" style="text;html=1;align=center;verticalAlign=middle;resizable=0;points=[];autosize=1;strokeColor=none;fillColor=none;fontColor=#0066cc;" parent="1" vertex="1">
          <mxGeometry x="205" y="710" width="150" height="60" as="geometry" />
        </mxCell>
      </root>
    </mxGraphModel>
  </diagram>
</mxfile>
